<?xml version="1.0" standalone="no"?>
<!DOCTYPE svg PUBLIC "-//W3C//DTD SVG 20010904//EN"
 "http://www.w3.org/TR/2001/REC-SVG-20010904/DTD/svg10.dtd">
<svg version="1.0" xmlns="http://www.w3.org/2000/svg"
 width="96.000000pt" height="96.000000pt" viewBox="0 0 96.000000 96.000000"
 preserveAspectRatio="xMidYMid meet">

<g transform="translate(0.000000,96.000000) scale(0.100000,-0.100000)"
fill="#000000" stroke="none">
<path d="M361 944 c-252 -68 -410 -331 -346 -577 23 -89 54 -145 117 -212 181
-194 479 -206 671 -27 96 90 144 190 154 321 24 319 -288 578 -596 495z m59
-58 c0 -29 -52 -352 -58 -357 -4 -3 -65 -52 -137 -108 l-130 -103 -14 34 c-24
54 -20 210 7 278 44 110 131 198 237 239 46 18 95 27 95 17z m247 -31 c63 -31
139 -102 176 -165 56 -96 72 -249 35 -339 l-13 -32 -135 106 c-74 59 -136 108
-137 109 -3 2 -53 341 -53 353 0 12 76 -8 127 -32z m-25 -577 c87 -35 158 -66
158 -70 0 -16 -118 -99 -170 -120 -78 -31 -222 -31 -300 0 -52 21 -170 104
-170 120 0 7 293 129 315 131 5 1 81 -27 167 -61z"/>
</g>
</svg>
